<?xml version="1.0" standalone="no"?>
<!DOCTYPE svg PUBLIC "-//W3C//DTD SVG 20010904//EN"
 "http://www.w3.org/TR/2001/REC-SVG-20010904/DTD/svg10.dtd">
<svg version="1.0" xmlns="http://www.w3.org/2000/svg"
 width="1566.000000pt" height="1566.000000pt" viewBox="0 0 1566.000000 1566.000000"
 preserveAspectRatio="xMidYMid meet">
<metadata>
Created by potrace 1.14, written by Peter Selinger 2001-2017
</metadata>
<g transform="translate(0.000000,1566.000000) scale(0.100000,-0.100000)"
fill="#000000" stroke="none">
<path d="M0 7830 l0 -7830 7830 0 7830 0 0 7830 0 7830 -7830 0 -7830 0 0
-7830z m15590 0 l0 -7760 -7760 0 -7760 0 0 7760 0 7760 7760 0 7760 0 0
-7760z"/>
<path d="M7787 13711 c-66 -80 -78 -101 -119 -216 -67 -184 -59 -149 -218
-1085 -227 -1338 -226 -1335 -298 -1445 -21 -33 -187 -246 -369 -472 -181
-227 -344 -440 -362 -473 -60 -113 -61 -122 -61 -912 -1 -812 2 -780 -77 -868
-25 -28 -251 -223 -502 -433 -251 -210 -742 -622 -1091 -917 -349 -294 -709
-591 -800 -660 -204 -154 -303 -251 -351 -345 -66 -128 -73 -202 -55 -639 11
-254 19 -281 96 -328 25 -15 299 -133 610 -262 636 -263 899 -373 1274 -535
142 -62 286 -118 320 -126 129 -31 206 -16 341 65 44 26 124 68 177 93 l96 45
21 -22 c12 -12 21 -27 21 -34 0 -26 -124 -141 -245 -227 -71 -50 -366 -258
-655 -461 -289 -203 -544 -388 -566 -411 -80 -82 -78 -68 -79 -513 l0 -394
230 -63 c127 -34 339 -90 472 -124 l243 -61 52 17 c29 9 66 26 83 38 42 30
498 395 621 498 227 190 266 226 293 269 62 100 62 104 68 595 l6 450 30 60
30 60 29 -35 c16 -19 38 -51 48 -70 17 -32 102 -406 210 -920 22 -107 43 -203
46 -212 5 -17 35 -18 437 -18 l432 0 29 138 c116 566 217 1016 235 1040 10 15
32 40 48 55 l30 28 31 -63 c35 -72 34 -58 62 -543 27 -449 33 -501 65 -568 37
-79 74 -113 341 -312 131 -98 289 -219 349 -269 214 -177 294 -216 442 -216
70 0 103 7 220 44 76 24 197 56 268 70 156 32 267 82 303 135 44 67 47 98 44
411 -3 292 -3 296 -28 347 -31 65 -28 62 -454 370 -190 137 -469 342 -621 455
-287 214 -292 218 -377 359 l-22 37 35 26 35 27 88 -52 c48 -29 128 -80 178
-115 114 -77 140 -91 204 -105 36 -8 64 -8 102 1 29 6 186 75 348 154 624 304
1411 671 1557 727 188 71 260 109 323 168 100 94 114 168 102 566 -8 274 -9
292 -31 334 -32 61 -88 114 -306 286 -105 82 -577 458 -1050 835 -473 377
-989 788 -1146 913 -158 124 -301 243 -319 264 -18 20 -45 62 -59 93 l-26 55
-5 780 -5 780 -29 84 c-36 103 -88 180 -386 581 -261 352 -277 374 -318 455
-62 123 -69 164 -172 915 -58 425 -104 707 -155 945 -46 215 -172 732 -185
764 -11 24 -119 151 -129 151 -3 0 -28 -27 -54 -59z m88 -1726 c29 -25 60 -60
69 -78 19 -41 69 -310 137 -741 l52 -330 -52 -325 c-69 -431 -119 -697 -136
-730 -7 -14 -39 -51 -69 -81 l-56 -54 -52 58 c-68 76 -72 83 -102 202 -140
563 -153 1165 -36 1725 50 241 60 269 120 338 29 34 57 61 62 61 6 0 34 -20
63 -45z m896 -1578 c218 -271 395 -494 393 -495 -1 -2 -29 10 -62 28 -200 106
-559 527 -688 806 -33 71 -58 154 -45 153 3 0 184 -221 402 -492z m-1442 429
l23 -24 -397 -484 c-219 -265 -408 -494 -421 -507 l-23 -25 -26 24 c-14 13
-25 27 -25 32 0 24 197 313 303 445 172 214 498 563 526 563 10 0 28 -11 40
-24z"/>
</g>
</svg>
